<svg width="24" height="24" viewBox="0 0 24 24" fill="none" xmlns="http://www.w3.org/2000/svg">
<path fill-rule="evenodd" clip-rule="evenodd" d="M20.5297 11.4702C20.6701 11.6108 20.749 11.8014 20.749 12.0002C20.749 12.1989 20.6701 12.3895 20.5297 12.5302L14.5297 18.5302C14.461 18.6038 14.3782 18.6629 14.2862 18.7039C14.1942 18.7449 14.0949 18.767 13.9942 18.7687C13.8935 18.7705 13.7935 18.752 13.7001 18.7143C13.6067 18.6766 13.5219 18.6204 13.4506 18.5492C13.3794 18.478 13.3233 18.3931 13.2856 18.2998C13.2478 18.2064 13.2293 18.1063 13.2311 18.0056C13.2329 17.9049 13.2549 17.8056 13.2959 17.7136C13.3369 17.6216 13.396 17.5388 13.4697 17.4702L18.1897 12.7502L3.99968 12.7502C3.80077 12.7502 3.61 12.6711 3.46935 12.5305C3.3287 12.3898 3.24968 12.1991 3.24968 12.0002C3.24968 11.8012 3.3287 11.6105 3.46935 11.4698C3.61 11.3292 3.80077 11.2502 3.99968 11.2502L18.1897 11.2502L13.4697 6.53015C13.396 6.46149 13.3369 6.37869 13.2959 6.28669C13.2549 6.19469 13.2329 6.09538 13.2311 5.99468C13.2293 5.89397 13.2478 5.79394 13.2856 5.70056C13.3233 5.60717 13.3794 5.52233 13.4506 5.45111C13.5219 5.3799 13.6067 5.32375 13.7001 5.28603C13.7935 5.24831 13.8935 5.22978 13.9942 5.23156C14.0949 5.23334 14.1942 5.25538 14.2862 5.29637C14.3782 5.33736 14.461 5.39647 14.5297 5.47015L20.5297 11.4702Z" fill="#3DA477"/>
</svg>
