<svg width="150" height="48" viewBox="0 0 150 48" fill="none" xmlns="http://www.w3.org/2000/svg">
<path d="M82.5181 24.1777C82.5181 20.274 81.0892 16.6982 78.4957 14.1091C75.8927 11.5113 72.2865 10.0815 68.3405 10.0815C60.1015 10.0815 54.1221 16.0097 54.1221 24.1777C54.1221 32.3456 60.1015 38.3146 68.3405 38.3146C72.2987 38.3146 75.9109 36.877 78.5105 34.2671C81.0944 31.6719 82.5181 28.0891 82.5181 24.1777ZM68.337 32.3343C63.7909 32.3343 60.4908 28.9059 60.4908 24.1811C60.4908 19.4564 63.79 16.0618 68.337 16.0618C72.884 16.0618 76.1494 19.5526 76.1494 24.1811C76.1494 28.8096 72.7912 32.3343 68.337 32.3343Z" fill="white"/>
<path d="M122.401 15.6664C123.017 16.2829 123.749 16.582 124.641 16.582C125.532 16.582 126.312 16.2855 126.923 15.675C127.533 15.0646 127.83 14.318 127.83 13.3929C127.83 12.4677 127.53 11.7489 126.913 11.1272C126.297 10.5055 125.554 10.2037 124.641 10.2037C123.728 10.2037 123.017 10.5055 122.402 11.1272C121.785 11.7489 121.485 12.4902 121.485 13.3929C121.485 14.2955 121.784 15.0507 122.401 15.6664Z" fill="white"/>
<path d="M126.151 18.996H123.198C122.422 18.996 121.793 19.6307 121.793 20.4128V36.5752C121.793 37.3573 122.422 37.9921 123.198 37.9921H126.151C126.927 37.9921 127.556 37.3573 127.556 36.5752V20.4128C127.556 19.6307 126.927 18.996 126.151 18.996Z" fill="white"/>
<path d="M149.464 36.8414L142.866 27.8636C142.816 27.796 142.819 27.7041 142.872 27.6391L149.118 20.0217C149.48 19.5804 149.166 18.9171 148.596 18.9171H144.219C143.699 18.9171 143.207 19.1477 142.874 19.5466L136.737 26.8986C136.594 27.0694 136.316 26.9688 136.316 26.746V11.7593C136.316 10.8662 135.592 10.1422 134.699 10.1422H132.052C131.159 10.1422 130.435 10.8662 130.435 11.7593V36.3125C130.435 37.2056 131.159 37.9296 132.052 37.9296H134.699C135.592 37.9296 136.316 37.2056 136.316 36.3125V28.5599C136.316 28.331 136.607 28.2339 136.744 28.4168L143.362 37.2203C143.693 37.6608 144.212 37.9192 144.762 37.9192H148.918C149.472 37.9192 149.791 37.2888 149.463 36.8423L149.464 36.8414Z" fill="white"/>
<path d="M104.859 22.9429C104.723 22.4218 104.548 21.9336 104.337 21.4906C104.129 21.0518 103.84 20.6174 103.481 20.1995C103.123 19.7824 102.709 19.4252 102.249 19.1364C101.791 18.8486 101.217 18.6118 100.542 18.4341C99.8649 18.2555 99.1088 18.1653 98.2937 18.1653C96.1763 18.1506 94.15 18.8702 92.3794 20.1587C92.2242 20.2714 92.0057 20.1587 92.0048 19.9662L92.0022 19.5769C92.0013 19.2561 91.7395 18.996 91.4195 18.996H87.7206C86.9601 18.996 86.3428 19.6125 86.3428 20.3738V36.616C86.3428 37.3764 86.9593 37.9938 87.7206 37.9938H90.6158C91.3762 37.9938 91.9935 37.3773 91.9935 36.616V26.9974C91.9935 25.8147 92.3612 24.8115 93.0852 24.0164C93.8153 23.2161 94.7777 22.8094 95.9466 22.8094C97.1154 22.8094 97.9903 23.2195 98.6258 24.0285C99.2484 24.8219 99.564 25.8312 99.564 27.0304V36.6151C99.564 37.3755 100.181 37.9929 100.942 37.9929H103.837C104.597 37.9929 105.215 37.3764 105.215 36.6151V25.8225C105.215 25.3404 105.19 24.8661 105.14 24.4126C105.092 23.9617 104.997 23.4675 104.861 22.9438L104.859 22.9429Z" fill="white"/>
<path d="M117.712 33.152H116.434C114.403 33.152 113.458 32.1808 113.458 30.0955V24.3554C113.458 24.2236 113.565 24.117 113.697 24.117H117.488C118.284 24.117 118.929 23.4718 118.929 22.6759V20.3703C118.929 19.5743 118.284 18.9292 117.488 18.9292H113.697C113.565 18.9292 113.458 18.8225 113.458 18.6907V15.9455C113.458 15.1496 112.813 14.5045 112.017 14.5045H109.472C108.676 14.5045 108.031 15.1496 108.031 15.9455V30.7736C108.031 35.5104 110.874 38.3389 115.636 38.3389H116.714C117.617 38.3389 118.211 37.8836 118.48 36.9853L119.081 34.9815C119.276 34.2826 119.114 33.8665 118.943 33.641C118.774 33.4182 118.422 33.152 117.712 33.152Z" fill="white"/>
<path fill-rule="evenodd" clip-rule="evenodd" d="M19.4182 16.6748C17.3459 17.0303 15.0646 18.7662 14.1143 20.7128C11.8486 25.3534 15.4539 31.0979 20.6321 31.0979C24.5453 31.0979 27.92 27.8558 27.9139 24.1048C27.9044 19.3896 23.9175 15.9031 19.4182 16.6757" fill="white"/>
<path fill-rule="evenodd" clip-rule="evenodd" d="M7.76582 29.2709C5.80969 27.8428 3.17983 27.9772 1.56619 29.5874C-0.828685 31.9779 -0.401213 35.7177 2.45669 37.3582C3.29429 37.8403 4.73451 38.0909 5.72211 37.9296C8.24185 37.516 10.0775 34.8107 9.5997 32.2164C9.4679 31.5036 9.35952 31.2496 8.87395 30.5204C8.45082 29.8857 8.16294 29.5605 7.76582 29.2709Z" fill="white"/>
<path fill-rule="evenodd" clip-rule="evenodd" d="M9.59377 15.943C10.0403 13.562 8.78652 11.2468 6.63876 10.4838C3.44964 9.35139 0.258779 11.3483 0.00905925 14.6337C-0.0655097 15.597 0.328144 17.0051 0.89955 17.8271C2.35711 19.9237 5.58959 20.4145 7.72608 18.8668C8.31309 18.441 8.49518 18.2338 8.94433 17.4812C9.33538 16.8257 9.50446 16.4259 9.59464 15.943" fill="white"/>
<path fill-rule="evenodd" clip-rule="evenodd" d="M22.8804 10.9191C25.4755 9.7702 26.8794 7.02414 26.1909 4.4437C25.1686 0.612922 21.1237 -1.14379 17.7845 0.795008C16.8047 1.36208 15.7061 2.67745 15.2917 3.77344C14.2347 6.57239 15.9047 10.0191 18.8172 11.0543C19.6175 11.3388 19.9392 11.3769 20.9633 11.311C21.8555 11.2538 22.3541 11.1515 22.8795 10.9182" fill="white"/>
<path fill-rule="evenodd" clip-rule="evenodd" d="M33.6256 18.8295C35.5817 20.2576 38.2116 20.1232 39.8252 18.513C42.2201 16.1224 41.7926 12.3827 38.9347 10.7422C38.0971 10.2601 36.6569 10.0095 35.6693 10.1708C33.1496 10.5844 31.314 13.2897 31.7917 15.884C31.9235 16.5967 32.0319 16.8508 32.5175 17.58C32.9406 18.2147 33.2285 18.5399 33.6256 18.8295Z" fill="white"/>
<path fill-rule="evenodd" clip-rule="evenodd" d="M31.7381 32.5329C31.4797 34.9408 32.9104 37.151 35.1119 37.7432C38.3799 38.6224 41.4043 36.3819 41.3956 33.087C41.3948 32.121 40.891 30.7476 40.258 29.9733C38.64 27.998 35.3798 27.7613 33.3717 29.4721C32.8202 29.942 32.6546 30.1631 32.2661 30.9487C31.928 31.632 31.7901 32.0447 31.7381 32.5329Z" fill="white"/>
<path fill-rule="evenodd" clip-rule="evenodd" d="M22.8804 47.5802C25.4755 46.4314 26.8794 43.6853 26.1909 41.1049C25.1686 37.2741 21.1237 35.5174 17.7845 37.4562C16.8047 38.0233 15.7061 39.3386 15.2917 40.4346C14.2347 43.2336 15.9047 46.6802 18.8172 47.7155C19.6175 47.9999 19.9392 48.0381 20.9633 47.9722C21.8555 47.9149 22.3541 47.8126 22.8795 47.5794" fill="white"/>
</svg>
