<svg width="150" height="48" viewBox="0 0 150 48" fill="none" xmlns="http://www.w3.org/2000/svg">
<path d="M82.5191 24.1777C82.5191 20.274 81.0901 16.6982 78.4967 14.1091C75.8937 11.5113 72.2875 10.0815 68.3414 10.0815C60.1024 10.0815 54.123 16.0097 54.123 24.1777C54.123 32.3456 60.1024 38.3146 68.3414 38.3146C72.2997 38.3146 75.9119 36.877 78.5114 34.2671C81.0953 31.6719 82.5191 28.0891 82.5191 24.1777ZM68.338 32.3343C63.7919 32.3343 60.4918 28.9059 60.4918 24.1811C60.4918 19.4564 63.791 16.0618 68.338 16.0618C72.8849 16.0618 76.1504 19.5526 76.1504 24.1811C76.1504 28.8096 72.7922 32.3343 68.338 32.3343Z" fill="#3DA477"/>
<path d="M122.402 15.6664C123.018 16.2829 123.75 16.582 124.642 16.582C125.533 16.582 126.313 16.2855 126.924 15.675C127.534 15.0646 127.831 14.318 127.831 13.3929C127.831 12.4677 127.531 11.7489 126.914 11.1272C126.298 10.5055 125.555 10.2037 124.642 10.2037C123.729 10.2037 123.018 10.5055 122.403 11.1272C121.786 11.7489 121.486 12.4902 121.486 13.3929C121.486 14.2955 121.785 15.0507 122.402 15.6664Z" fill="#3DA477"/>
<path d="M126.151 18.996H123.198C122.422 18.996 121.793 19.6307 121.793 20.4128V36.5752C121.793 37.3573 122.422 37.9921 123.198 37.9921H126.151C126.927 37.9921 127.556 37.3573 127.556 36.5752V20.4128C127.556 19.6307 126.927 18.996 126.151 18.996Z" fill="#3DA477"/>
<path d="M149.465 36.8414L142.867 27.8636C142.817 27.796 142.82 27.7041 142.873 27.6391L149.119 20.0217C149.481 19.5804 149.167 18.9171 148.597 18.9171H144.22C143.7 18.9171 143.208 19.1477 142.875 19.5466L136.738 26.8986C136.595 27.0694 136.317 26.9688 136.317 26.746V11.7593C136.317 10.8662 135.593 10.1422 134.7 10.1422H132.053C131.16 10.1422 130.436 10.8662 130.436 11.7593V36.3125C130.436 37.2056 131.16 37.9296 132.053 37.9296H134.7C135.593 37.9296 136.317 37.2056 136.317 36.3125V28.5599C136.317 28.331 136.608 28.2339 136.745 28.4168L143.363 37.2203C143.694 37.6608 144.213 37.9192 144.763 37.9192H148.919C149.473 37.9192 149.792 37.2888 149.464 36.8423L149.465 36.8414Z" fill="#3DA477"/>
<path d="M104.86 22.9429C104.724 22.4218 104.549 21.9336 104.338 21.4906C104.13 21.0518 103.841 20.6174 103.482 20.1995C103.124 19.7824 102.71 19.4252 102.25 19.1364C101.792 18.8486 101.218 18.6118 100.543 18.4341C99.8659 18.2555 99.1098 18.1653 98.2947 18.1653C96.1773 18.1506 94.1509 18.8702 92.3804 20.1587C92.2252 20.2714 92.0066 20.1587 92.0058 19.9662L92.0032 19.5769C92.0023 19.2561 91.7405 18.996 91.4205 18.996H87.7215C86.9611 18.996 86.3438 19.6125 86.3438 20.3738V36.616C86.3438 37.3764 86.9602 37.9938 87.7215 37.9938H90.6167C91.3772 37.9938 91.9945 37.3773 91.9945 36.616V26.9974C91.9945 25.8147 92.3622 24.8115 93.0862 24.0164C93.8163 23.2161 94.7787 22.8094 95.9475 22.8094C97.1164 22.8094 97.9913 23.2195 98.6268 24.0285C99.2494 24.8219 99.565 25.8312 99.565 27.0304V36.6151C99.565 37.3755 100.181 37.9929 100.943 37.9929H103.838C104.598 37.9929 105.216 37.3764 105.216 36.6151V25.8225C105.216 25.3404 105.191 24.8661 105.141 24.4126C105.093 23.9617 104.998 23.4675 104.862 22.9438L104.86 22.9429Z" fill="#3DA477"/>
<path d="M117.712 33.152H116.434C114.403 33.152 113.458 32.1808 113.458 30.0955V24.3554C113.458 24.2236 113.565 24.117 113.697 24.117H117.488C118.284 24.117 118.929 23.4718 118.929 22.6759V20.3703C118.929 19.5743 118.284 18.9292 117.488 18.9292H113.697C113.565 18.9292 113.458 18.8225 113.458 18.6907V15.9455C113.458 15.1496 112.813 14.5045 112.017 14.5045H109.472C108.676 14.5045 108.031 15.1496 108.031 15.9455V30.7736C108.031 35.5104 110.874 38.3389 115.636 38.3389H116.714C117.617 38.3389 118.211 37.8836 118.48 36.9853L119.081 34.9815C119.276 34.2826 119.114 33.8665 118.943 33.641C118.774 33.4182 118.422 33.152 117.712 33.152Z" fill="#3DA477"/>
<path fill-rule="evenodd" clip-rule="evenodd" d="M19.4182 16.6748C17.3459 17.0303 15.0646 18.7662 14.1143 20.7128C11.8486 25.3534 15.4539 31.0979 20.6321 31.0979C24.5453 31.0979 27.92 27.8558 27.9139 24.1048C27.9044 19.3896 23.9175 15.9031 19.4182 16.6757" fill="#3DA477"/>
<path fill-rule="evenodd" clip-rule="evenodd" d="M7.76484 29.2709C5.80871 27.8428 3.17885 27.9772 1.56522 29.5874C-0.829661 31.9779 -0.40219 35.7177 2.45571 37.3582C3.29331 37.8403 4.73353 38.0909 5.72114 37.9296C8.24087 37.516 10.0765 34.8107 9.59872 32.2164C9.46693 31.5036 9.35854 31.2496 8.87297 30.5204C8.44984 29.8857 8.16197 29.5605 7.76484 29.2709Z" fill="#3DA477"/>
<path fill-rule="evenodd" clip-rule="evenodd" d="M9.59377 15.943C10.0403 13.562 8.78652 11.2468 6.63876 10.4838C3.44964 9.35139 0.258779 11.3483 0.00905925 14.6337C-0.0655097 15.597 0.328144 17.0051 0.89955 17.8271C2.35711 19.9237 5.58959 20.4145 7.72608 18.8668C8.31309 18.441 8.49518 18.2338 8.94433 17.4812C9.33538 16.8257 9.50446 16.4259 9.59464 15.943" fill="#3DA477"/>
<path fill-rule="evenodd" clip-rule="evenodd" d="M22.8804 10.9191C25.4755 9.7702 26.8794 7.02414 26.1909 4.4437C25.1686 0.61292 21.1237 -1.14379 17.7845 0.795006C16.8047 1.36208 15.7061 2.67744 15.2917 3.77344C14.2347 6.57239 15.9047 10.019 18.8172 11.0543C19.6175 11.3388 19.9392 11.3769 20.9633 11.311C21.8555 11.2538 22.3541 11.1515 22.8795 10.9182" fill="#3DA477"/>
<path fill-rule="evenodd" clip-rule="evenodd" d="M33.6246 18.8295C35.5808 20.2576 38.2106 20.1232 39.8242 18.513C42.2191 16.1224 41.7917 12.3827 38.9338 10.7422C38.0962 10.2601 36.6559 10.0095 35.6683 10.1708C33.1486 10.5844 31.313 13.2897 31.7907 15.884C31.9225 16.5967 32.0309 16.8508 32.5165 17.58C32.9396 18.2147 33.2275 18.5399 33.6246 18.8295Z" fill="#3DA477"/>
<path fill-rule="evenodd" clip-rule="evenodd" d="M31.7371 32.5329C31.4787 34.9408 32.9094 37.151 35.1109 37.7432C38.3789 38.6224 41.4033 36.3819 41.3946 33.087C41.3938 32.121 40.89 30.7476 40.257 29.9733C38.6391 27.998 35.3788 27.7613 33.3707 29.4721C32.8192 29.942 32.6536 30.1631 32.2652 30.9487C31.927 31.632 31.7891 32.0447 31.7371 32.5329Z" fill="#3DA477"/>
<path fill-rule="evenodd" clip-rule="evenodd" d="M22.8804 47.5802C25.4755 46.4314 26.8794 43.6853 26.1909 41.1049C25.1686 37.2741 21.1237 35.5174 17.7845 37.4562C16.8047 38.0233 15.7061 39.3386 15.2917 40.4346C14.2347 43.2336 15.9047 46.6802 18.8172 47.7155C19.6175 47.9999 19.9392 48.0381 20.9633 47.9722C21.8555 47.9149 22.3541 47.8126 22.8795 47.5794" fill="#3DA477"/>
</svg>
